<?xml version="1.0" encoding="UTF-8"?> <svg xmlns="http://www.w3.org/2000/svg" width="1496" height="307" viewBox="0 0 1496 307" fill="none"> <path d="M54.8041 302.499C46.66 302.499 38.5159 302.454 30.3268 302.363C22.2276 302.318 14.1735 302.228 6.07435 302.228C5.17445 302.228 4.27454 302.093 3.14966 301.913L0 301.553V1.93563L1.75481 1.89062C9.98893 1.71056 18.268 1.35044 26.4572 0.990323C38.1559 0.540176 50.2146 0 62.0484 0C83.736 0 101.194 1.80059 117.077 5.67185C193.839 24.3529 242.479 97.3667 230.195 175.557C219.037 246.77 158.428 299.978 86.0308 302.138C76.7618 302.364 66.8628 302.499 54.8041 302.499ZM56.6489 280.036C63.5782 280.036 70.5074 280.081 77.4367 280.171H79.5065C157.078 280.171 204.098 219.221 209.003 161.918C214.717 94.9359 162.478 30.79 97.1896 24.713C84.186 23.4977 71.1374 23.3176 61.1935 23.3176C55.974 23.3176 50.7096 23.3626 45.4901 23.4076C40.2257 23.4526 35.0063 23.4977 29.7418 23.4977C27.3571 23.4977 24.9273 23.4977 22.5426 23.4526V280.081C28.032 280.126 50.7546 280.036 56.6489 280.036Z" fill="#221F20"></path> <path d="M116.673 7.38238C79.1015 -1.7556 40.4507 2.8359 1.7998 3.69118V299.978C3.64461 300.203 4.90447 300.518 6.11934 300.518C32.7565 300.518 59.3936 301.148 85.9858 300.338C157.168 298.222 217.507 244.925 228.441 175.287C240.454 98.6271 192.804 25.9284 116.673 7.38238ZM210.757 162.053C205.358 225.163 152.174 283.007 77.3917 281.927C58.6737 281.657 39.9557 281.882 20.7878 281.882V22.6424C21.5077 22.1922 21.9127 21.697 22.3626 21.697C47.3799 21.9671 72.5772 20.6167 97.4146 22.9124C164.817 29.2145 216.517 94.6208 210.757 162.053Z" fill="#221F20"></path> <path d="M372.965 307C363.336 307 353.572 305.785 343.943 303.399C281.085 287.869 243.064 225.974 257.373 162.548C269.386 109.206 317.756 70.538 372.425 70.538C380.029 70.538 387.679 71.3033 395.148 72.7888C462.371 86.3382 496.162 147.378 489.998 198.515L489.818 200.09H278.295C279.285 233.941 309.027 269.863 345.473 280.712C354.067 283.277 363.111 284.583 372.38 284.583C391.188 284.583 437.713 278.416 463.72 221.517L464.44 219.942L483.878 228.044L483.293 229.665C466.015 275.94 421.695 307 372.965 307ZM467.41 177.088C463.495 136.394 426.599 93.2254 372.38 93.2254H370.49C323.335 94.0807 280.68 133.063 278.16 177.088H467.41Z" fill="#221F20"></path> <path d="M394.788 74.5443C334.089 62.3003 272.941 101.463 259.127 162.953C244.594 227.459 285.135 287.014 344.438 301.688C406.307 316.993 462.371 280.711 481.628 229.035C476.229 226.784 470.785 224.488 465.385 222.237C438.028 282.197 383.539 293.901 345.023 282.422C307.587 271.258 276.54 233.896 276.585 198.335H488.243C494.182 148.909 461.651 88.0487 394.788 74.5443ZM276.36 178.843C277.8 132.883 321.896 92.3251 370.49 91.4248C427.589 90.3895 466.33 136.079 469.345 178.843H276.36Z" fill="#221F20"></path> <path d="M516.86 301.868V1.39545H673.128V22.7774H539.357V131.038H664.444V153.05H538.772V301.868H516.86Z" fill="#221F20"></path> <path d="M518.615 300.068H537.018V151.249H662.689V132.838H537.602V20.9768H671.373V3.19601H518.615V300.068Z" fill="#221F20"></path> <path d="M797.675 306.82C795.335 306.82 792.95 306.775 790.565 306.64C758.889 305.019 731.847 292.19 710.159 268.512C666.289 220.617 668.853 147.828 715.963 102.859C737.201 82.6019 767.033 70.9882 797.81 70.9882C834.886 70.9882 868.497 87.7336 892.974 118.254V76.795L893.154 76.66V70.9431H914.842V76.66L914.932 77.7854V301.778H893.244V294.981H893.154V258.474C866.922 291.02 835.651 306.82 797.675 306.82ZM797.45 93.2704C744.58 93.2704 701.52 135.989 701.43 188.476C701.385 214.225 711.374 238.443 729.507 256.584C747.595 274.725 771.712 284.718 797.405 284.763C850.184 284.763 893.109 241.774 893.199 188.927C893.244 163.538 883.3 139.545 865.257 121.45C847.079 103.264 823.007 93.2704 797.45 93.2704V91.4698V93.2704Z" fill="#221F20"></path> <path d="M913.087 77.7853V72.7887H894.954V77.6953C894.909 77.7403 894.819 77.7403 894.774 77.7853V123.475C844.065 55.368 760.239 63.0655 717.223 104.119C671.148 148.053 668.224 220.077 711.464 267.297C732.657 290.435 759.204 303.219 790.655 304.839C833.851 307.045 867.642 289.129 894.909 253.342V294.981L894.999 294.036V299.978H913.132V77.8303C913.132 77.7853 913.087 77.7853 913.087 77.7853ZM797.36 286.518C743.231 286.518 699.54 242.629 699.585 188.431C699.675 134.729 743.321 91.4247 797.405 91.4698C851.174 91.4698 894.999 135.314 894.909 188.927C894.864 242.539 850.859 286.563 797.36 286.518Z" fill="#221F20"></path> <path d="M1155.25 149.494L1154.67 147.873C1137.39 101.778 1092.75 70.8081 1043.62 70.8081C1037.14 70.8081 1030.61 71.3483 1024.09 72.3836C968.071 81.4766 924.921 133.108 925.866 189.872C926.856 247.716 971.221 298.672 1026.93 305.875C1032.37 306.595 1037.86 306.955 1043.26 306.955C1100.81 306.955 1141.35 266.892 1154.67 229.665L1155.25 228.089L1135.95 219.942L1135.23 221.517C1109.58 278.416 1062.61 284.583 1043.62 284.583C1034.71 284.583 1025.94 283.367 1017.61 281.027C977.835 269.773 949.398 232.906 948.408 191.447C947.419 147.693 973.201 111.726 1015.77 97.5918C1025.08 94.4858 1034.66 92.9553 1044.2 92.9553C1053.11 92.9553 1062.11 94.3058 1070.98 97.0066C1100.04 105.785 1120.87 125.231 1134.69 156.426L1148.37 159.037L1155.25 149.494Z" fill="#221F20"></path> <path d="M1143.33 156.336L1146.97 156.516L1149.18 153.635C1149.22 153.59 1150.57 151.744 1152.82 148.728C1152.91 148.683 1152.96 148.683 1153.05 148.638C1153.05 148.593 1153 148.548 1153 148.503C1135 100.518 1083.62 64.551 1024.41 74.1842C969.286 83.1421 926.721 133.559 927.666 189.872C928.611 247.401 972.481 297.052 1027.15 304.164C1089.56 312.222 1137.48 272.384 1152.96 229.125C1147.6 226.874 1142.2 224.578 1136.8 222.282C1110.03 281.747 1055.59 293.676 1017.07 282.782C976.8 271.393 947.554 233.941 946.609 191.537C945.574 147.288 972.031 110.286 1015.23 95.9713C1033.85 89.8043 1052.84 89.7142 1071.52 95.3411C1102.7 104.749 1123.21 126.176 1136.35 155.751L1136.13 155.841C1140.54 156.156 1143.1 156.291 1143.33 156.336Z" fill="#221F20"></path> <path d="M1378.16 306.82C1313.18 306.82 1260.27 253.928 1260.27 188.882C1260.27 123.835 1313.14 70.9881 1378.16 70.9881C1443.13 70.9881 1496 123.88 1496 188.882C1496 253.883 1443.13 306.82 1378.16 306.82ZM1378.16 92.7302C1325.15 92.7302 1282 135.854 1282 188.927C1282 241.999 1325.15 285.123 1378.16 285.123C1431.16 285.123 1474.31 241.999 1474.31 188.927C1474.31 135.854 1431.16 92.7302 1378.16 92.7302Z" fill="#221F20"></path> <path d="M1378.16 72.7888C1314.04 72.7888 1262.07 124.781 1262.07 188.927C1262.07 253.073 1314.04 305.064 1378.16 305.064C1442.28 305.064 1494.25 253.073 1494.25 188.927C1494.25 124.781 1442.28 72.7888 1378.16 72.7888ZM1378.16 286.879C1324.07 286.879 1280.25 243.034 1280.25 188.927C1280.25 134.819 1324.07 90.9747 1378.16 90.9747C1432.24 90.9747 1476.07 134.819 1476.07 188.927C1476.07 243.034 1432.24 286.879 1378.16 286.879Z" fill="#221F20"></path> <path d="M1241.19 306.91C1238.94 306.91 1236.96 306.685 1235.07 306.505L1233.68 306.37C1224 305.379 1215.86 302.859 1208.75 298.627C1201.51 294.306 1195.66 287.779 1191.38 279.181C1187.11 270.628 1185.26 258.789 1185.94 243.889V97.8618L1147.38 98.0419V75.7596H1185.35V1.48544H1208.53V75.4445H1263.82V97.5017L1208.48 97.7718V243.979C1208.48 254.018 1209.61 262.03 1211.86 267.747C1214.02 273.374 1217.39 277.695 1221.89 280.621C1226.39 283.592 1231.83 285.348 1238.54 286.068C1239.62 286.203 1242.36 286.473 1245.29 286.473L1248.21 286.428V306.235L1246.68 306.46C1244.88 306.775 1243.04 306.91 1241.19 306.91Z" fill="#221F20"></path> <path d="M1220.94 282.107C1216.13 278.956 1212.53 274.364 1210.24 268.377C1207.9 262.39 1206.73 254.243 1206.73 243.934V95.9713L1262.07 95.7012V77.2002H1206.77V3.2861H1187.15V77.5153H1149.18V96.2414L1187.78 96.0613V243.979C1187.11 258.609 1188.86 270.088 1193 278.371C1197.14 286.698 1202.72 292.91 1209.7 297.052C1216.67 301.193 1224.72 303.624 1233.86 304.524C1237.41 304.884 1241.1 305.469 1246.46 304.659V288.184C1243.04 288.274 1239.57 287.914 1238.36 287.779C1231.56 287.149 1225.76 285.303 1220.94 282.107Z" fill="#221F20"></path> </svg> 